<svg width="186" height="50" viewBox="0 0 186 50" fill="none" xmlns="http://www.w3.org/2000/svg">
<path d="M27.3872 16.6433L10.7723 33.2627L6.26308 37.7733C5.7446 38.2918 4.90299 38.2932 4.38304 37.7733L0.389412 33.7811C-0.129069 33.2627 -0.130538 32.421 0.389412 31.9011L4.90005 27.389C4.90005 27.389 13.2824 19.0052 13.3206 18.9684C17.1541 15.2289 22.8031 14.4519 27.3872 16.6433Z" fill="#7344F3"/>
<path d="M33.2667 22.519C35.4787 27.1487 34.665 32.8622 30.8315 36.6987L18.0163 49.5183C17.4978 50.0367 16.6562 50.0382 16.1363 49.5183L12.1441 45.5276C11.6242 45.0091 11.6242 44.1675 12.1441 43.6475L33.2682 22.5176L33.2667 22.519Z" fill="#7344F3"/>
<path d="M4.89998 27.3886C2.68945 22.7605 3.50169 17.0469 7.33522 13.2104L20.1504 0.389412C20.6689 -0.129069 21.5105 -0.130538 22.0304 0.389412L26.0226 4.3801C26.5425 4.89858 26.5425 5.7402 26.0226 6.26015L4.89998 27.3886Z" fill="#FFFFFF"/>
<path d="M37.7744 16.1276C38.2928 16.6461 38.2943 17.4877 37.7744 18.0062C34.6987 21.0833 24.8755 30.9109 24.8432 30.9418C21.0096 34.6813 15.3622 35.4568 10.7766 33.2654L31.9007 12.1369C32.4192 11.6184 33.2608 11.6184 33.7807 12.1369L37.7744 16.1276Z" fill="#FFFFFF"/>
<path d="M52.704 11.1597C57.7594 11.1597 61.0211 14.4213 61.1194 17.9765C61.1194 18.2055 61.0225 18.3024 60.7935 18.3024H57.3367C57.1077 18.3024 57.0445 18.2055 57.0108 17.9765C56.6849 15.9538 54.9249 14.9424 52.6409 14.9424C50.5212 14.9424 48.8244 15.7586 48.8244 17.4554C48.8244 19.3798 51.3345 20.2606 54.2394 21.0767C58.122 22.1512 61.8078 23.7835 61.8078 27.4019C61.8078 32.0345 58.3172 34.6415 53.002 34.6415C47.6868 34.6415 44.1976 31.1846 44.1638 26.9453C44.1638 26.7164 44.2607 26.6195 44.4897 26.6195H47.9128C48.1418 26.6195 48.2049 26.7164 48.2387 26.9453C48.4677 29.589 50.3921 30.8587 53.1972 30.8587C56.0023 30.8587 57.6992 29.6184 57.6992 27.8246C57.6992 26.1923 55.6442 25.1501 52.5132 24.3677C47.6222 23.1288 44.7157 21.4011 44.7157 17.6492C44.7157 13.4731 48.566 11.1582 52.7069 11.1582H52.704V11.1597ZM90.6152 21.0841C90.6152 21.2235 90.4875 21.3204 90.3539 21.2896C89.9032 21.1898 89.4482 21.1398 89.0254 21.1398C86.9704 21.1398 85.4717 22.1175 85.4717 25.5435V33.9927C85.4717 34.1732 85.3264 34.3186 85.1458 34.3186H81.8842C81.7036 34.3186 81.5583 34.1732 81.5583 33.9927V18.2716C81.5583 18.091 81.7036 17.9457 81.8842 17.9457H85.1458C85.3264 17.9457 85.4717 18.091 85.4717 18.2716V19.1523C86.4493 18.2393 87.8203 17.6199 89.4834 17.6199C89.7535 17.6199 90.0207 17.6316 90.2805 17.6565C90.4757 17.6727 90.621 17.843 90.621 18.0382V21.0914L90.6181 21.0855L90.6152 21.0841ZM103.93 29.0987C104.095 28.8375 104.159 28.8066 104.387 28.8066H107.713C107.878 28.8066 107.942 28.9035 107.942 29.0356C107.942 29.1002 107.942 29.1663 107.878 29.3615C106.474 32.949 103.8 34.6459 99.8863 34.6459C95.1568 34.6459 91.5047 31.189 91.5047 26.1336C91.5047 21.0782 95.2874 17.6213 99.9201 17.6213C105.269 17.6213 108.366 21.7299 108.366 26.4932V27.0481C108.366 27.2771 108.269 27.374 108.04 27.374H95.6148C95.9407 29.5582 97.5054 31.123 99.9216 31.123C101.814 31.123 103.086 30.502 103.933 29.1002L103.93 29.0987ZM95.744 24.1094H104.19C103.603 22.3494 102.235 21.1428 99.9172 21.1428C98.0559 21.1428 96.3928 22.251 95.741 24.1094H95.744ZM78.7223 18.2687C78.7223 18.0397 78.6254 17.9428 78.3964 17.9428H75.1348C74.9058 17.9428 74.8089 18.0397 74.8089 18.2687L74.8221 27.3637C74.8221 29.2191 73.3117 30.7281 71.4577 30.7281C69.6038 30.7281 68.0933 29.2191 68.0933 27.3637V18.2687C68.0904 18.0397 67.9935 17.9428 67.7645 17.9428H64.5029C64.2739 17.9428 64.177 18.0397 64.177 18.2687V27.3637C64.1799 31.3784 67.4445 34.643 71.4577 34.643C75.471 34.643 78.737 31.3784 78.737 27.3637L78.7238 18.2687H78.7223Z" fill="#FFFFFF"/>
<path d="M119.348 11.1597C124.403 11.1597 127.665 14.4213 127.763 17.9765C127.763 18.2055 127.666 18.3024 127.437 18.3024H123.98C123.751 18.3024 123.688 18.2055 123.654 17.9765C123.328 15.9538 121.568 14.9424 119.284 14.9424C117.165 14.9424 115.468 15.7586 115.468 17.4554C115.468 19.3798 117.978 20.2606 120.883 21.0767C124.766 22.1512 128.451 23.7835 128.451 27.4019C128.451 32.0345 124.961 34.6415 119.647 34.6415C114.333 34.6415 110.843 31.1846 110.809 26.9453C110.809 26.7164 110.906 26.6195 111.135 26.6195H114.558C114.787 26.6195 114.85 26.7164 114.884 26.9453C115.113 29.589 117.037 30.8587 119.842 30.8587C122.647 30.8587 124.344 29.6184 124.344 27.8246C124.344 26.1923 122.289 25.1501 119.158 24.3677C114.267 23.1288 111.361 21.4011 111.361 17.6492C111.361 13.4731 115.211 11.1582 119.352 11.1582H119.349L119.348 11.1597ZM134.244 18.2687L138.157 28.5424L141.322 18.2687C141.389 18.0397 141.452 17.9428 141.745 17.9428H145.332C145.497 17.9428 145.593 18.0074 145.593 18.1718C145.593 18.2393 145.593 18.3024 145.56 18.4008L139.527 35.9156C138.092 40.0903 135.939 41.1017 133.786 41.1017C132.415 41.1017 131.34 40.9064 130.621 40.5806C130.329 40.4162 130.295 40.2547 130.295 40.0595V37.1897C130.295 36.9608 130.426 36.8639 130.556 36.8639C131.08 36.8639 131.99 37.5802 133.166 37.5802C134.829 37.5802 135.71 36.5351 136.428 33.9589L129.84 18.4654C129.806 18.3685 129.775 18.301 129.775 18.2041C129.775 18.0397 129.872 17.9428 130.037 17.9428H133.819C134.081 17.9428 134.179 18.0397 134.242 18.2687H134.239H134.244ZM167.572 26.1292C167.572 29.3248 169.367 31.1186 171.943 31.1186C173.803 31.1186 175.239 30.2378 175.825 28.5747C175.921 28.3134 176.054 28.2826 176.281 28.2826H179.477C179.607 28.2826 179.706 28.3501 179.706 28.4778C179.706 28.5424 179.706 28.6731 179.672 28.8037C179.182 31.9347 176.312 34.643 172.008 34.643C167.146 34.643 163.463 31.2507 163.463 26.1307C163.463 21.0107 167.148 17.6184 172.008 17.6184C176.312 17.6184 179.185 20.3266 179.672 23.4576C179.706 23.5883 179.706 23.7189 179.706 23.7835C179.706 23.9142 179.609 23.9787 179.477 23.9787H176.281C176.052 23.9787 175.921 23.945 175.825 23.6866C175.237 22.0235 173.803 21.1428 171.943 21.1428C169.367 21.1428 167.572 22.9365 167.572 26.1321V26.1292ZM146.725 33.9897C146.725 34.2187 146.822 34.3156 147.051 34.3156H150.313C150.542 34.3156 150.639 34.2187 150.639 33.9897L150.625 24.8947C150.625 23.0393 152.134 21.5303 153.99 21.5303C155.845 21.5303 157.354 23.0393 157.354 24.8947V33.9897C157.357 34.2187 157.454 34.3156 157.683 34.3156H160.945C161.174 34.3156 161.272 34.2187 161.272 33.9897V24.8947C161.269 20.88 158.004 17.6154 153.99 17.6154C149.975 17.6154 146.71 20.88 146.71 24.8947L146.724 33.9897H146.725Z" fill="#7344F3"/>
</svg>
